<svg xmlns="http://www.w3.org/2000/svg" viewBox="0 0 44 45">
  <defs>
    <style>
      .cls-1 {
        fill: #fff;
      }
    </style>
  </defs>
  <path id="Subtraction_1" data-name="Subtraction 1" class="cls-1" d="M1140-865a21.445,21.445,0,0,1-8.564-1.768,21.906,21.906,0,0,1-6.993-4.822,22.461,22.461,0,0,1-4.715-7.152A22.8,22.8,0,0,1,1118-887.5a22.8,22.8,0,0,1,1.729-8.758,22.461,22.461,0,0,1,4.715-7.152,21.906,21.906,0,0,1,6.993-4.822A21.445,21.445,0,0,1,1140-910a21.442,21.442,0,0,1,8.563,1.768,21.906,21.906,0,0,1,6.993,4.822,22.463,22.463,0,0,1,4.715,7.152A22.8,22.8,0,0,1,1162-887.5a22.8,22.8,0,0,1-1.729,8.758,22.463,22.463,0,0,1-4.715,7.152,21.905,21.905,0,0,1-6.993,4.822A21.442,21.442,0,0,1,1140-865Zm-2.9-33a3.085,3.085,0,0,0-2.2.9,3.087,3.087,0,0,0-.9,2.2,3.085,3.085,0,0,0,.9,2.2l5.2,5.2-5.2,5.2a3.085,3.085,0,0,0-.9,2.2,3.087,3.087,0,0,0,.9,2.2,3.089,3.089,0,0,0,2.2.9,3.09,3.09,0,0,0,2.2-.9l7.4-7.4a3.082,3.082,0,0,0,.9-2.2,3.086,3.086,0,0,0-.9-2.2l-7.4-7.4A3.088,3.088,0,0,0,1137.1-898Z" transform="translate(-1118 910)"/>
</svg>
