<?xml version="1.0" encoding="utf-8"?>
<!-- Generator: Adobe Illustrator 23.0.0, SVG Export Plug-In . SVG Version: 6.00 Build 0)  -->
<svg version="1.1" id="Layer_1" xmlns="http://www.w3.org/2000/svg" xmlns:xlink="http://www.w3.org/1999/xlink" x="0px" y="0px"
	 viewBox="0 0 46 45" style="enable-background:new 0 0 46 45;" xml:space="preserve">
<style type="text/css">
	.st0{fill:#FFFFFF;}
</style>
<path class="st0" d="M22.8,44c12,0,21.7-9.7,21.7-21.7c0-12-9.7-21.7-21.7-21.7C10.8,0.6,1,10.3,1,22.3C1,34.3,10.8,44,22.8,44z
	 M15.6,20.2l8-8c0.6-0.6,1.4-0.9,2.1-0.9s1.5,0.3,2.1,0.9c1.2,1.2,1.2,3.1,0,4.2L22,22.3l5.9,5.9c1.2,1.2,1.2,3.1,0,4.2
	c-1.2,1.2-3.1,1.2-4.2,0l-8-8C14.5,23.3,14.5,21.4,15.6,20.2z"/>
</svg>
