<?xml version="1.0" encoding="utf-8"?>
<!-- Generator: Adobe Illustrator 23.0.0, SVG Export Plug-In . SVG Version: 6.00 Build 0)  -->
<svg version="1.1" id="Layer_1" xmlns="http://www.w3.org/2000/svg" xmlns:xlink="http://www.w3.org/1999/xlink" x="0px" y="0px"
	 viewBox="0 0 53.3 53.3" style="enable-background:new 0 0 53.3 53.3;" xml:space="preserve">
<style type="text/css">
	.st0{fill:#FFFFFF;}
</style>
<path class="st0" d="M26.7,4.8c-12,0-21.7,9.7-21.7,21.7c0,12,9.7,21.7,21.7,21.7s21.7-9.7,21.7-21.7C48.4,14.6,38.7,4.8,26.7,4.8z
	 M36.8,32.4c1.2,1.2,1.2,3.1,0,4.2c-0.6,0.6-1.4,0.9-2.1,0.9s-1.5-0.3-2.1-0.9l-5.9-5.9l-5.9,5.9c-0.6,0.6-1.4,0.9-2.1,0.9
	c-0.8,0-1.5-0.3-2.1-0.9c-1.2-1.2-1.2-3.1,0-4.2l5.9-5.9l-5.9-5.9c-1.2-1.2-1.2-3.1,0-4.2c1.2-1.2,3.1-1.2,4.2,0l5.9,5.9l5.9-5.9
	c1.2-1.2,3.1-1.2,4.2,0s1.2,3.1,0,4.2l-5.9,5.9L36.8,32.4z"/>
</svg>
