<?xml version="1.0" encoding="utf-8"?>
<!-- Generator: Adobe Illustrator 23.0.0, SVG Export Plug-In . SVG Version: 6.00 Build 0)  -->
<svg version="1.1" id="Layer_1" xmlns="http://www.w3.org/2000/svg" xmlns:xlink="http://www.w3.org/1999/xlink" x="0px" y="0px"
	 viewBox="0 0 46 45" style="enable-background:new 0 0 46 45;" xml:space="preserve">
<style type="text/css">
	.st0{fill:#FFFFFF;}
</style>
<path class="st0" d="M23,0.8c-12,0-21.7,9.7-21.7,21.7S11,44.2,23,44.2s21.7-9.8,21.7-21.8S35,0.8,23,0.8z M28.6,30.7h-2.8
	c-0.9,0-1.7-0.7-1.7-1.7V15.9c0-0.9,0.7-1.7,1.7-1.7h2.8c0.9,0,1.7,0.7,1.7,1.7v13.2C30.2,30,29.5,30.7,28.6,30.7z M20.3,30.7h-2.8
	c-0.9,0-1.7-0.7-1.7-1.7V15.9c0-0.9,0.7-1.7,1.7-1.7h2.8c0.9,0,1.7,0.7,1.7,1.7v13.2C21.9,30,21.2,30.7,20.3,30.7z"/>
</svg>
