<?xml version="1.0" encoding="utf-8"?>
<!-- Generator: Adobe Illustrator 23.0.0, SVG Export Plug-In . SVG Version: 6.00 Build 0)  -->
<svg version="1.1" id="Layer_1" xmlns="http://www.w3.org/2000/svg" xmlns:xlink="http://www.w3.org/1999/xlink" x="0px" y="0px"
	 viewBox="0 0 46 45" style="enable-background:new 0 0 46 45;" xml:space="preserve">
<style type="text/css">
	.st0{fill:#FFFFFF;}
</style>
<path class="st0" d="M23,0.8c-12,0-21.7,9.7-21.7,21.7S11,44.2,23,44.2s21.7-9.8,21.7-21.8S35,0.8,23,0.8z M24.2,30.5
	c0,0.5-0.2,0.8-0.4,1c-0.2,0.2-0.5,0.4-0.9,0.4H22c-0.5,0-0.8-0.2-1-0.4c-0.2-0.2-0.4-0.5-0.4-1v-1.4c0-0.5,0.2-0.8,0.4-1
	c0.2-0.2,0.5-0.4,1-0.4h0.8c0.5,0,0.8,0.2,1,0.4c0.2,0.2,0.4,0.5,0.4,1V30.5z M28.6,21.6c-0.3,0.6-0.7,1.2-1.2,1.6
	c-0.5,0.4-1,0.8-1.7,1c-0.5,0.2-1.1,0.3-1.6,0.3v1.2c0,0.5-0.2,0.8-0.4,1c-0.2,0.2-0.5,0.4-0.9,0.4H22c-0.5,0-0.8-0.2-1-0.4
	c-0.2-0.2-0.4-0.5-0.4-0.9v-3.1c0-0.5,0.2-0.8,0.4-1c0.2-0.2,0.5-0.4,1-0.4h1.9c0.5,0,1-0.2,1.3-0.5c0.3-0.3,0.5-0.8,0.5-1.3
	c0-0.3,0-0.5-0.1-0.7c-0.1-0.2-0.2-0.4-0.4-0.6c-0.2-0.2-0.4-0.3-0.6-0.4c-0.2-0.1-0.4-0.1-0.7-0.1h-3.3c-0.5,0-0.8-0.2-1-0.4
	c-0.2-0.2-0.4-0.5-0.4-1v-0.7c0-0.5,0.2-0.8,0.4-1c0.2-0.2,0.5-0.4,1-0.4h3.1c0.7,0,1.4,0.1,2,0.3c0.6,0.2,1.2,0.6,1.7,1
	c0.5,0.4,0.9,1,1.2,1.6c0.3,0.6,0.4,1.3,0.4,2.1C29,20.3,28.9,21,28.6,21.6z"/>
</svg>
