<?xml version="1.0" encoding="utf-8"?>
<!-- Generator: Adobe Illustrator 23.0.0, SVG Export Plug-In . SVG Version: 6.00 Build 0)  -->
<svg version="1.1" id="Layer_1" xmlns="http://www.w3.org/2000/svg" xmlns:xlink="http://www.w3.org/1999/xlink" x="0px" y="0px"
	 viewBox="0 0 46 45" style="enable-background:new 0 0 46 45;" xml:space="preserve">
<style type="text/css">
	.st0{fill:#FFFFFF;}
</style>
<path class="st0" d="M44.5,22.2c0-12-9.7-21.7-21.7-21.7S1,10.2,1,22.2c0,12,9.7,21.8,21.7,21.8S44.5,34.2,44.5,22.2z M20.7,29.4
	l-8-8c-0.6-0.6-0.9-1.4-0.9-2.1s0.3-1.5,0.9-2.1c1.2-1.2,3.1-1.2,4.2,0l5.9,5.8l5.9-5.9c1.2-1.2,3.1-1.2,4.2,0
	c1.2,1.2,1.2,3.1,0,4.2l-8,8C23.8,30.5,21.9,30.5,20.7,29.4z"/>
</svg>
